<svg version="1" xmlns="http://www.w3.org/2000/svg" width="346.667" height="346.667" viewBox="0 0 260.000000 260.000000"><path d="M27 10.7c-8.4 1.4-14 5.9-15.9 13-1.5 5.4-1.5 207.4 0 212.8 1.4 5.1 7.3 11 12.4 12.4 5.6 1.5 207.4 1.5 213 0 5.1-1.4 11-7.3 12.4-12.4 1.5-5.6 1.5-207.4 0-213-1.4-5.1-7.3-11-12.4-12.4-2.8-.8-34.1-1.1-105.5-1-55.8.1-102.6.4-104 .6zm210.2 12.1l2.3 2.3v209.8l-2.3 2.3-2.3 2.3H25.1l-2.3-2.3-2.3-2.3V130.1c0-100.7.1-105 1.9-106.9 1-1.2 3-2.3 4.5-2.5 1.4-.2 48.8-.4 105.3-.3l102.7.1 2.3 2.3z"/><path d="M49 131v48h12v-26.6l4.5-4.4c2.4-2.4 4.8-4.1 5.1-3.7.4.3 5.3 8.2 10.9 17.4l10.2 16.8 6.8.3c5.2.2 6.6 0 6.2-1-.2-.7-6.2-10.3-13.1-21.2-6.9-11-12.6-20.5-12.6-21.2 0-.6 5.9-6.9 13.1-13.8l13.1-12.6H90.5l-14.7 14.7L61 138.5V83H49v48zM152 131v48h12v-8.3l4.4 4.1c9.6 8.8 24.8 8 34.3-2 12.2-12.7 13.7-41.9 2.9-56-5.6-7.4-18.6-11.5-28.3-8.9-2.3.6-6.3 2.7-8.8 4.6L164 116V83h-12v48zm39.8-11.3c6.8 5 9.8 14.4 8.9 27.6-.6 8.9-4.3 17.8-8.9 21-3.6 2.6-11.4 3.3-15.9 1.4-7.4-3-11.9-13.1-11.9-26.2.1-12.6 3.7-20.6 11.2-24.4 5.2-2.7 12.6-2.4 16.6.6zM118 99.5v9.5h-10v10h10v25c0 28.4.6 31.6 6.5 34.4 3.3 1.6 11.9 2.2 14.9 1 1.2-.4 1.6-2 1.6-5.5V169h-3.9c-7 0-7.1-.2-7.1-26.6V119h11v-10h-11V90h-12v9.5z"/></svg>